<!-- Generated by IcoMoon.io -->
<svg version="1.1" xmlns="http://www.w3.org/2000/svg" width="32" height="32" viewBox="0 0 32 32">
<title>release</title>
<path d="M16 25.434c-0.345 0-0.625 0.28-0.625 0.625v0.015c0 0.345 0.28 0.625 0.625 0.625s0.625-0.28 0.625-0.625v-0.015c0-0.345-0.28-0.625-0.625-0.625z"></path>
<path d="M29.829 30.75c-0.915 0-1.767-0.492-2.224-1.284-0.112-0.193-0.318-0.313-0.541-0.313s-0.43 0.119-0.541 0.313c-0.421 0.73-1.178 1.204-2.010 1.274 1.19-2.303 2.267-5.223 3.131-7.902 0.012-0.029 0.022-0.059 0.029-0.090 0.287-0.892 0.55-1.757 0.786-2.561 0.005-0.015 0.009-0.030 0.013-0.045 0.277-0.946 0.516-1.808 0.71-2.535 0.058-0.216-0.004-0.446-0.162-0.604-1.641-1.641-3.63-3.255-5.726-4.681l-0.148-4.802c-0.024-0.768-0.634-1.37-1.389-1.37h-2.613l-0.269-2.908c-0.001-0.014-0.002-0.028-0.004-0.042l-0.193-2.085c-0.059-0.635-0.561-1.114-1.169-1.114h-3.021c-0.608 0-1.11 0.479-1.169 1.114l-0.193 2.086c-0.002 0.014-0.003 0.027-0.004 0.041l-0.269 2.909h-2.613c-0.755 0-1.365 0.602-1.389 1.37l-0.148 4.802c-2.095 1.426-4.084 3.040-5.726 4.681-0.158 0.158-0.22 0.388-0.162 0.604 0.194 0.723 0.431 1.581 0.707 2.522 0.005 0.020 0.011 0.040 0.018 0.060 0.236 0.804 0.499 1.667 0.785 2.558 0.007 0.031 0.017 0.062 0.030 0.092 0.865 2.68 1.942 5.598 3.131 7.901-0.832-0.070-1.589-0.544-2.010-1.274-0.112-0.193-0.318-0.313-0.541-0.313s-0.43 0.119-0.541 0.313c-0.457 0.792-1.31 1.284-2.225 1.284-0.345 0-0.625 0.28-0.625 0.625s0.28 0.625 0.625 0.625c1.055 0 2.053-0.44 2.766-1.187 0.712 0.747 1.711 1.187 2.766 1.187 0.313 0 0.621-0.039 0.918-0.113 0.015-0.003 0.029-0.007 0.043-0.011 0.687-0.18 1.314-0.549 1.805-1.063 0.712 0.747 1.711 1.187 2.766 1.187s2.053-0.44 2.766-1.187c0.712 0.747 1.711 1.187 2.766 1.187s2.053-0.44 2.766-1.187c0.488 0.511 1.109 0.878 1.791 1.059 0.022 0.007 0.044 0.012 0.067 0.017 0.294 0.072 0.599 0.111 0.908 0.111 1.055 0 2.054-0.44 2.766-1.187 0.712 0.747 1.711 1.187 2.766 1.187 0.345 0 0.625-0.28 0.625-0.625s-0.28-0.625-0.625-0.625zM22.387 13.215c1.995 1.341 3.9 2.863 5.493 4.419-0.105 0.385-0.22 0.803-0.346 1.247-2.746-2.272-7.592-5.698-10.91-7.217l-0-1.664c1.842 0.808 3.787 1.896 5.657 3.145 0.033 0.027 0.068 0.051 0.106 0.071zM14.563 1.25h2.874l0.13 1.406h-3.134l0.13-1.406zM14.317 3.906h3.365l0.207 2.244h-3.78l0.207-2.244zM10.102 7.558c0.002-0.078 0.055-0.159 0.139-0.159h11.516c0.084 0 0.137 0.081 0.14 0.159l0.121 3.927c-1.937-1.223-3.922-2.264-5.774-3.001-0.002-0.001-0.004-0.002-0.006-0.002-0.003-0.001-0.006-0.002-0.009-0.004-0.005-0.002-0.011-0.004-0.016-0.005-0.012-0.004-0.024-0.009-0.037-0.013-0.008-0.002-0.015-0.004-0.023-0.006-0.012-0.003-0.023-0.006-0.035-0.008-0.010-0.002-0.020-0.003-0.030-0.005s-0.019-0.003-0.029-0.004c-0.041-0.004-0.081-0.004-0.122 0-0.010 0.001-0.019 0.003-0.029 0.004s-0.020 0.003-0.030 0.005c-0.012 0.002-0.024 0.005-0.035 0.008-0.008 0.002-0.015 0.004-0.023 0.006-0.012 0.004-0.025 0.008-0.037 0.013-0.005 0.002-0.011 0.003-0.016 0.005-0.003 0.001-0.006 0.002-0.009 0.004-0.002 0.001-0.004 0.002-0.006 0.002-1.852 0.738-3.837 1.778-5.773 3.001l0.121-3.927zM4.119 17.634c1.593-1.555 3.497-3.076 5.491-4.417 0.039-0.020 0.075-0.045 0.108-0.073 1.87-1.249 3.815-2.337 5.656-3.145l0 1.664c-3.318 1.519-8.164 4.946-10.91 7.217-0.126-0.443-0.241-0.861-0.346-1.246zM23.22 30.511c-0.474-0.219-0.879-0.58-1.147-1.045-0.001-0.002-0.002-0.004-0.004-0.006-0.007-0.012-0.014-0.023-0.022-0.034-0.004-0.006-0.008-0.012-0.013-0.018-0.007-0.010-0.015-0.019-0.023-0.029-0.006-0.007-0.011-0.014-0.017-0.020-0.007-0.008-0.014-0.015-0.021-0.022s-0.015-0.015-0.023-0.023c-0.006-0.005-0.012-0.011-0.019-0.016-0.010-0.008-0.020-0.016-0.030-0.024-0.006-0.004-0.012-0.008-0.018-0.012-0.011-0.008-0.023-0.015-0.035-0.022-0.002-0.001-0.004-0.003-0.006-0.004-0.005-0.003-0.010-0.005-0.015-0.008-0.011-0.006-0.022-0.012-0.033-0.017-0.009-0.004-0.018-0.008-0.027-0.012s-0.019-0.008-0.028-0.011c-0.011-0.004-0.021-0.007-0.032-0.010-0.008-0.002-0.017-0.005-0.025-0.007-0.012-0.003-0.023-0.005-0.035-0.008-0.008-0.002-0.016-0.003-0.024-0.004-0.012-0.002-0.023-0.003-0.034-0.004-0.009-0.001-0.018-0.002-0.027-0.002-0.011-0-0.021-0.001-0.032-0.001s-0.020 0-0.030 0.001c-0.009 0-0.019 0.001-0.028 0.002-0.011 0.001-0.022 0.002-0.033 0.004-0.009 0.001-0.017 0.003-0.026 0.004-0.011 0.002-0.023 0.005-0.034 0.007-0.009 0.002-0.017 0.005-0.026 0.007-0.011 0.003-0.021 0.006-0.031 0.010s-0.020 0.007-0.029 0.011c-0.009 0.004-0.017 0.007-0.026 0.011-0.011 0.005-0.023 0.011-0.034 0.017-0.005 0.003-0.010 0.005-0.015 0.008-0.002 0.001-0.004 0.002-0.006 0.004-0.012 0.007-0.023 0.015-0.035 0.022-0.006 0.004-0.012 0.008-0.018 0.012-0.010 0.008-0.020 0.016-0.030 0.024-0.006 0.005-0.013 0.010-0.019 0.016-0.008 0.007-0.015 0.015-0.023 0.023s-0.015 0.014-0.021 0.022c-0.006 0.006-0.011 0.013-0.017 0.020-0.008 0.009-0.016 0.019-0.023 0.029-0.004 0.006-0.008 0.012-0.013 0.018-0.008 0.011-0.015 0.022-0.022 0.034-0.001 0.002-0.003 0.004-0.004 0.006-0.457 0.792-1.31 1.284-2.225 1.284s-1.767-0.492-2.225-1.285c-0.112-0.193-0.318-0.313-0.541-0.313s-0.43 0.119-0.541 0.313c-0.457 0.792-1.31 1.284-2.224 1.284s-1.767-0.492-2.225-1.284c-0.001-0.002-0.002-0.004-0.004-0.005-0.007-0.012-0.015-0.023-0.022-0.035-0.004-0.006-0.008-0.012-0.012-0.018-0.007-0.010-0.016-0.020-0.024-0.030-0.005-0.006-0.011-0.013-0.016-0.019-0.007-0.008-0.014-0.015-0.022-0.022s-0.015-0.015-0.023-0.022c-0.006-0.006-0.013-0.011-0.019-0.016-0.010-0.008-0.020-0.016-0.030-0.024-0.006-0.004-0.012-0.008-0.018-0.012-0.011-0.008-0.023-0.015-0.034-0.022-0.002-0.001-0.004-0.002-0.005-0.004-0.005-0.003-0.010-0.005-0.015-0.008-0.011-0.006-0.022-0.012-0.034-0.017-0.009-0.004-0.017-0.008-0.026-0.011s-0.019-0.008-0.029-0.011c-0.010-0.004-0.021-0.007-0.031-0.010-0.009-0.003-0.017-0.005-0.026-0.007-0.011-0.003-0.022-0.005-0.034-0.007-0.009-0.002-0.017-0.003-0.026-0.005-0.011-0.002-0.022-0.003-0.033-0.004-0.009-0.001-0.019-0.002-0.029-0.002s-0.020-0.001-0.030-0.001c-0.011 0-0.022 0-0.033 0.001-0.009 0-0.017 0.001-0.025 0.002-0.012 0.001-0.024 0.002-0.036 0.004-0.008 0.001-0.015 0.003-0.023 0.004-0.012 0.002-0.024 0.005-0.036 0.008-0.008 0.002-0.015 0.004-0.023 0.006-0.011 0.003-0.023 0.007-0.034 0.011-0.009 0.003-0.018 0.007-0.027 0.010s-0.019 0.008-0.028 0.012c-0.011 0.005-0.021 0.011-0.032 0.016-0.005 0.003-0.011 0.005-0.016 0.008-0.002 0.001-0.004 0.003-0.006 0.004-0.011 0.007-0.022 0.014-0.033 0.021-0.006 0.004-0.013 0.008-0.019 0.013-0.010 0.007-0.019 0.015-0.028 0.023-0.007 0.006-0.014 0.011-0.020 0.017-0.008 0.007-0.015 0.014-0.022 0.021s-0.015 0.015-0.023 0.023c-0.005 0.006-0.011 0.013-0.016 0.019-0.008 0.010-0.016 0.020-0.024 0.030-0.004 0.006-0.008 0.012-0.012 0.018-0.008 0.011-0.015 0.023-0.022 0.034-0.001 0.002-0.002 0.004-0.004 0.006-0.269 0.465-0.674 0.826-1.147 1.045-1.175-2.186-2.25-5.043-3.122-7.71l0.534-0.468c0.377-0.33 0.78-0.669 1.197-1.006 0.269-0.217 0.311-0.61 0.094-0.879s-0.61-0.311-0.879-0.094c-0.431 0.348-0.847 0.697-1.236 1.039l-0.124 0.109c-0.139-0.448-0.272-0.886-0.398-1.31 2.494-2.127 7.245-5.517 10.529-7.145l0 11.215c0 0.345 0.28 0.625 0.625 0.625s0.625-0.28 0.625-0.625l0-11.215c3.284 1.627 8.035 5.018 10.529 7.145-0.126 0.423-0.259 0.861-0.398 1.309l-0.124-0.109c-0.806-0.707-1.689-1.419-2.699-2.176-0.276-0.207-0.668-0.151-0.875 0.125s-0.151 0.668 0.125 0.875c0.971 0.728 1.854 1.44 2.625 2.116l0.534 0.468c-0.872 2.666-1.947 5.524-3.122 7.71z"></path>
<path d="M8.857 19.25c-0.244-0.216-0.609-0.208-0.842 0.011-0.054 0.051-0.099 0.111-0.133 0.177-0.154 0.309-0.029 0.684 0.28 0.838 0.090 0.045 0.185 0.066 0.279 0.066 0.177 0 0.348-0.075 0.468-0.21 0-0 0-0 0.001-0.001 0.229-0.258 0.206-0.653-0.052-0.882z"></path>
</svg>
